# File created by Blade
# Date/Time:  Wed Jan 21 19:14:05 2015
#---------------------------------------------------------
:version 1.10
:name HOM
:units
  mass 1.0
  length 1.000000
  angle deg
:documentation
     Acclaim Skeleton File
:root
   axis xyz
   order TX TY TZ RX RY RZ
   position 0.000000 0.000000 0.000000
   orientation 0 0 0
:bonedata
   begin
      id 1
      name RightUpLeg_dum
      direction -1.000000 0.000000 0.000000
      length 3.693983
      axis 0.0 0.0 0.0 xyz
   end
   begin
      id 2
      name LeftUpLeg_dum
      direction 1.000000 0.000000 0.000000
      length 3.693983
      axis 0.0 0.0 0.0 xyz
   end
   begin
      id 3
      name Spine_dum
      direction 0.000000 1.000000 0.000000
      length 2.392956
      axis 0.0 0.0 0.0 xyz
   end
   begin
      id 4
      name RightUpLeg
      direction 0.000000 -1.000000 0.000000
      length 15.795667
      axis 0.0 0.0 0.0 xyz
      dof rx ry rz
   end
   begin
      id 5
      name RightLeg
      direction 0.000000 -1.000000 0.000000
      length 14.766989
      axis 0.0 0.0 0.0 xyz
      dof rx ry rz
   end
   begin
      id 6
      name RightFoot
      direction 0.000000 -0.258819 0.965926
      length 4.962790
      axis 15.0 0.0 0.0 xyz
      dof rx ry rz
   end
   begin
      id 7
      name RightToeBase
      direction 0.000000 0.000000 1.000000
      length 2.952750
      axis 0.0 0.0 0.0 xyz
      dof rx ry rz
   end
   begin
      id 8
      name LeftUpLeg
      direction 0.000000 -1.000000 0.000000
      length 15.795667
      axis 0.0 0.0 0.0 xyz
      dof rx ry rz
   end
   begin
      id 9
      name LeftLeg
      direction 0.000000 -1.000000 0.000000
      length 14.766989
      axis 0.0 0.0 0.0 xyz
      dof rx ry rz
   end
   begin
      id 10
      name LeftFoot
      direction 0.000000 -0.258819 0.965926
      length 4.962790
      axis 15.0 0.0 0.0 xyz
      dof rx ry rz
   end
   begin
      id 11
      name LeftToeBase
      direction 0.000000 0.000000 1.000000
      length 2.952750
      axis 0.0 0.0 0.0 xyz
      dof rx ry rz
   end
   begin
      id 12
      name Spine
      direction 0.000000 1.000000 0.000000
      length 0.000000
      axis 0.0 0.0 0.0 xyz
      dof rx ry rz
   end
   begin
      id 13
      name Spine_dum1
      direction 0.000000 1.000000 0.000000
      length 13.207411
      axis 0.0 0.0 0.0 xyz
   end
   begin
      id 14
      name Spine_dum2
      direction 0.000000 1.000000 0.000000
      length 13.207411
      axis 0.0 0.0 0.0 xyz
   end
   begin
      id 15
      name Spine_dum3
      direction 0.000000 1.000000 0.000000
      length 19.250100
      axis 0.0 0.0 0.0 xyz
   end
   begin
      id 16
      name RightShoulder
      direction -1.000000 0.000000 0.000000
      length 8.140465
      axis 0.0 0.0 90.0 xyz
      dof rx ry rz
   end
   begin
      id 17
      name RightArm
      direction -1.000000 0.000000 0.000000
      length 10.649840
      axis 0.0 0.0 90.0 xyz
      dof rx ry rz
   end
   begin
      id 18
      name RightForeArm
      direction -1.000000 0.000000 0.000000
      length 8.304624
      axis 0.0 0.0 90.0 xyz
      dof ry rz rx
   end
   begin
      id 19
      name RightHand
      direction -1.000000 0.000000 0.000000
      length 0.000000
      axis 0.0 0.0 90.0 xyz
      dof rx ry rz
   end
   begin
      id 20
      name RightHand_dum1
      direction -1.000000 0.000000 0.000000
      length 3.937000
      axis 0.0 0.0 90.0 xyz
   end
   begin
      id 21
      name RightHand_dum2
      direction 0.000000 0.000000 0.000000
      length 0.000000
      axis 0.0 0.0 90.0 xyz
   end
   begin
      id 22
      name RightHandThumb1
      direction 0.000000 0.000000 1.000000
      length 3.937000
      axis 0.0 0.0 90.0 xyz
      dof rx rz ry
   end
   begin
      id 23
      name LeftShoulder
      direction 1.000000 0.000000 0.000000
      length 8.140465
      axis 0.0 0.0 -90.0 xyz
      dof rx ry rz
   end
   begin
      id 24
      name LeftArm
      direction 1.000000 0.000000 0.000000
      length 10.649840
      axis 0.0 0.0 -90.0 xyz
      dof rx ry rz
   end
   begin
      id 25
      name LeftForeArm
      direction 1.000000 0.000000 0.000000
      length 8.304624
      axis 0.0 0.0 -90.0 xyz
      dof ry rz rx
   end
   begin
      id 26
      name LeftHand
      direction 1.000000 0.000000 0.000000
      length 0.000000
      axis 0.0 0.0 -90.0 xyz
      dof rx ry rz
   end
   begin
      id 27
      name LeftHand_dum1
      direction 1.000000 0.000000 0.000000
      length 3.937000
      axis 0.0 0.0 -90.0 xyz
   end
   begin
      id 28
      name LeftHand_dum2
      direction 0.000000 0.000000 0.000000
      length 0.000000
      axis 0.0 0.0 -90.0 xyz
   end
   begin
      id 29
      name LeftHandThumb1
      direction 0.000000 0.000000 1.000000
      length 3.937000
      axis 0.0 0.0 -90.0 xyz
      dof rx rz ry
   end
   begin
      id 30
      name Head
      direction 0.000000 1.000000 0.000000
      length 4.527550
      axis 0.0 0.0 0.0 xyz
      dof rx ry rz
   end
:hierarchy
   begin
      root RightUpLeg_dum LeftUpLeg_dum Spine_dum
      RightUpLeg_dum RightUpLeg
      LeftUpLeg_dum LeftUpLeg
      Spine_dum Spine
      RightUpLeg RightLeg
      RightLeg RightFoot
      RightFoot RightToeBase
      LeftUpLeg LeftLeg
      LeftLeg LeftFoot
      LeftFoot LeftToeBase
      Spine Spine_dum1 Spine_dum2 Spine_dum3
      Spine_dum1 RightShoulder
      Spine_dum2 LeftShoulder
      Spine_dum3 Head
      RightShoulder RightArm
      RightArm RightForeArm
      RightForeArm RightHand
      RightHand RightHand_dum1 RightHand_dum2
      RightHand_dum2 RightHandThumb1
      LeftShoulder LeftArm
      LeftArm LeftForeArm
      LeftForeArm LeftHand
      LeftHand LeftHand_dum1 LeftHand_dum2
      LeftHand_dum2 LeftHandThumb1
   end

# File created by Blade
# Date/Time:  Wed Jan 21 19:13:57 2015
# Frame Rate: 120.000 fps
#------------------------------------------------------
:FULLY-SPECIFIED
:DEGREES
145
root -3.343668 33.010382 -3.816616 53.004040 63.547801 -5.883368
RightUpLeg -35.861405 -8.854081 6.392119
RightLeg -1.034468 -0.000000 0.000000
RightFoot 6.270697 -3.438951 20.032214
RightToeBase -2.709617 -0.000000 0.000000
LeftUpLeg -53.904690 4.924105 -9.238891
LeftLeg -1.123883 -0.000000 0.000000
LeftFoot -5.910936 -4.166549 -1.379740
LeftToeBase 8.944094 -0.000000 -0.000000
Spine -49.891017 -3.633022 -1.119845
RightShoulder -17.769759 5.429534 -30.402313
RightArm -12.245430 -15.109363 87.469508
RightForeArm 12.395503 0.000000 3.953695
RightHand 10.985469 0.000000 -0.521465
RightHandThumb1 -24.326973 -0.000000 -32.862282
LeftShoulder -7.790894 0.645371 36.315329
LeftArm 34.031629 0.369138 -48.542401
LeftForeArm 9.496802 -0.000000 1.253253
LeftHand -16.339554 -0.000000 -4.207617
LeftHandThumb1 -26.253704 0.000000 33.147579
Head 1.589460 -3.867027 12.660683
146
root -3.319249 33.002422 -3.827713 53.031575 63.647961 -6.015046
RightUpLeg -35.967554 -8.878253 6.425171
RightLeg -0.986130 -0.000000 0.000000
RightFoot 6.363006 -3.281655 20.426705
RightToeBase -2.903219 -0.000000 0.000000
LeftUpLeg -54.041948 4.806148 -9.078829
LeftLeg -1.057647 -0.000000 0.000000
LeftFoot -6.069769 -4.095485 -1.314952
LeftToeBase 8.942006 -0.000000 -0.000000
Spine -49.933647 -3.622564 -1.125172
RightShoulder -17.725504 5.458542 -30.399110
RightArm -12.270864 -15.059642 87.447960
RightForeArm 12.411082 0.000000 4.012369
RightHand 11.256515 0.000000 -0.838309
RightHandThumb1 -24.326973 -0.000000 -32.862282
LeftShoulder -7.834151 0.630448 36.284974
LeftArm 33.927352 0.334567 -48.437208
LeftForeArm 9.311068 -0.000000 1.437792
LeftHand -16.228760 0.000000 -4.326500
LeftHandThumb1 -26.253704 0.000000 33.147579
Head 1.427218 -3.654179 12.675314
147
root -3.294197 32.993858 -3.839150 53.083602 63.745954 -6.123714
RightUpLeg -36.087413 -8.950300 6.472185
RightLeg -0.923478 -0.000000 0.000000
RightFoot 6.432122 -3.056217 20.957862
RightToeBase -2.837848 -0.000000 0.000000
LeftUpLeg -54.190669 4.704161 -8.961567
LeftLeg -0.979436 -0.000000 0.000000
LeftFoot -6.246930 -4.070158 -1.223975
LeftToeBase 8.969936 -0.000000 -0.000000
Spine -49.974340 -3.605769 -1.162393
RightShoulder -17.714269 5.420051 -30.374754
RightArm -12.224078 -15.106219 87.405422
RightForeArm 12.690659 -0.000000 4.016427
RightHand 11.312953 -0.000000 -0.751721
RightHandThumb1 -24.326973 -0.000000 -32.862282
LeftShoulder -7.880655 0.634724 36.285818
LeftArm 33.895606 0.106402 -48.490921
LeftForeArm 9.375568 -0.000000 1.568733
LeftHand -15.894467 -0.000000 -4.450906
LeftHandThumb1 -26.253704 0.000000 33.147579
Head 1.236806 -3.427099 12.710019
148
root -3.271196 32.987327 -3.852459 53.127434 63.847369 -6.258826
RightUpLeg -36.242517 -9.084802 6.550702
RightLeg -0.834986 -0.000000 0.000000
RightFoot 6.570251 -2.640246 21.578776
RightToeBase -2.796940 -0.000000 0.000000
LeftUpLeg -54.396341 4.614223 -8.851061
LeftLeg -0.833771 -0.000000 0.000000
LeftFoot -6.425195 -4.047824 -1.097048
LeftToeBase 8.979761 -0.000000 -0.000000
Spine -50.026060 -3.571376 -1.205400
RightShoulder -17.726135 5.401801 -30.370643
RightArm -12.211051 -15.097782 87.383406
RightForeArm 12.832231 -0.000000 3.968317
RightHand 11.728649 -0.000000 -0.819750
RightHandThumb1 -24.326973 -0.000000 -32.862282
LeftShoulder -7.927697 0.670382 36.264038
LeftArm 33.944465 -0.015264 -48.418188
LeftForeArm 9.186524 0.000000 1.702871
LeftHand -15.623385 -0.000000 -4.586210
LeftHandThumb1 -26.253704 0.000000 33.147579
Head 1.021194 -3.281205 12.767028
